<?xml version="1.0" encoding="UTF-8"?>
<svg viewBox="0 0 717.63 553.63" xmlns="http://www.w3.org/2000/svg" xmlns:xlink="http://www.w3.org/1999/xlink">
 <defs>
  <linearGradient id="n" x1="-.075391" x2="1.0444" y1=".51386" y2=".51386" xlink:href="#a"/>
  <linearGradient id="m" x1="-.075463" x2="1.0444" y1=".51384" y2=".51384" xlink:href="#a"/>
  <linearGradient id="o" x1="-.075295" x2="1.0445" y1=".51387" y2=".51387" xlink:href="#a"/>
  <linearGradient id="l" x1="-.075571" x2="1.0442" y1=".51383" y2=".51383" xlink:href="#a"/>
  <linearGradient id="k" x1="-.072463" x2="1.0608" y1=".50125" y2=".50125" xlink:href="#a"/>
  <linearGradient id="a">
   <stop offset="0"/>
   <stop stop-opacity="0" offset="1"/>
  </linearGradient>
  <linearGradient id="j" x1="-.072448" x2="1.0609" y1=".50126" y2=".50126" xlink:href="#a"/>
  <linearGradient id="i" x1="-.072448" x2="1.0609" y1=".50125" y2=".50125" xlink:href="#a"/>
 </defs>
 <g fill-rule="evenodd">
  <path d="m90.203 525.33c5.323 4.3058 7.6533 8.6736 18.726 11.461 13.333 3.3566 43.728 2.1493 57.831 3.5019 8.5042 0.81555 17.07 1.2385 25.196 2.6022 12.06 2.024 26.359-1.3011 38.763-1.3011h89.155c12.899 0 25.754 0.65057 38.763 0.65057 14.458 0 32.577-0.38776 46.516 1.9517 12.781 2.1451 30.117 0 43.608 0 15.52 0 31.853-1.3012 46.516-1.3012 10.576 0 30.507-1.166 40.701-3.9033 8.1674-2.1933 26.539 0 35.856 0 11.796 0 20.888-2.6024 32.949-2.6024 8.1821 0 22.728 4.0577 29.123 1.9111 6.22-2.0878 13.846-1.7027 21.773-1.7027 7.9228 0 24.09 0.060669 29.161-1.3011 6.8648-1.8434 14.745-4.8756 3.2843-12.569-5.4496-3.6584-13.708-2.6024-22.289-2.6024-10.767 0-30.847-9.053-38.763-11.71-12.806-4.2987-33.162-3.9034-47.485-3.9034-16.942 0-31.781-1.3012-48.454-1.3012-12.345 0-24.412 1.3012-36.825 1.3012-11.288 0-24.528 0.86526-35.856 1.9516-14.762 1.4158-29.658 1.3012-44.578 1.3012-17.443 0-35.877-2.6023-54.268-2.6023-17.573 0-34.848 0.6506-52.33 0.6506-16.084 0-32.302 0.65051-48.454 0.65051-10.111 0-24.115-2.0231-33.918-3.9034-8.7321-1.6749-17.804-1.3012-27.134-1.3012-9.8986 0-19.891-0.65054-30.041-0.65054-9.3524 0-17.766 0.82404-26.165 1.9517-7.0693 0.94919-14.439 1.0147-20.351 2.6023-1.3413 0.36017-2.5842 0.86749-3.8763 1.3011-7.2448 2.4318-10.027 9.1149-16.474 12.361-5.6764 2.858-3.4717 6.5056-10.66 6.5056z" fill="#dbdbdb"/>
  <g stroke="#000">
   <g fill="#009100">
    <path d="m548.23 502.46c3.5892-1.5045-5.3808 7.8345-5.3808 11.885 0 7.6974 18.998 14.222 24.028 14.506 10.522 0.59283 29.664 1.0861 39.954 1.0861 6.8077 0 34.288 0.65662 39.882-0.51324 12.84-2.6852 13.214 0.90521 17.864-1.5308 9.4916-4.9732-5.3966-10.755-10.122-12.68-7.9642-3.2447-12.257-7.9367-19.988-7.9367-11.723 0-21.284-6.9007-33.532-6.9007-12.284 0-23.164-4.1684-35.8-4.1684-9.4667 0-13.481-2.7194-16.906 6.2525z" stroke-width=".741"/>
    <path d="m264.28 499.16c10.416 4.705-32.482 11.614-27.73 13.036 20.678 6.1873 47.368 9.2314 51.435 10.253 11.685 2.9346 11.045 0.14905 19.636 0.16394 13.482 0.021667 0.16718 0.91937 12.028 0.07428 14.209-1.0124 4.2508 0.06427 13.092-0.90173 11.059-1.2082 15.802 1.6229 22.119-0.11182 19.943-5.4766-33.747-15.887-52.968-15.887-14.4 0-32.402-16.863-37.611-6.6266z" stroke-width=".976"/>
    <path d="m64.49 500.88c5.458-1.8543-9.0733 7.8512-9.0733 12.844 0 9.4873 8.9604 25.944 18.402 27.547 0.40044 0.068054 19.638 1.2212 30.036 0.86829 14.398-0.48877 23.854 1.2711 35.56 0.78369 12.757-0.53125 21.825-2.1923 37.473-2.1923 10.352 0 23.996 3.2993 35.944 2.446 13.84-0.9884 28.214-0.46429 36.789-1.0834 10.476-0.75629 32.67 0.72064 26.2-1.076-13.493-3.7466-3.0177 0.83954-18.996-5.6164-10.605-4.285-51.089-12.924-55.975-17.342-17.226-15.579 2.7032-12.492-9.0519-12.492-17.826 0-28.538-7.2558-47.162-7.2558-18.68 0-35.224-5.1377-54.439-5.1377-14.396 0-20.5-3.3518-25.708 7.7065z" stroke-width="1.014"/>
   </g>
   <g fill="#f7f7f7">
    <path d="m261.37 382.04l128.27-150.92 119.53 152.83-247.8-1.9104z" stroke-width="1.589"/>
    <path d="m261.28 512.36l-0.8674-253.06-91.941-5.3123 1.5826 257.67 91.225 0.7037z" stroke-width="1.976"/>
   </g>
   <path d="m153.74 306.42l-93.885 98.986 94.339 0.8644-0.4536-99.851z" fill="#224022" fill-opacity=".989" stroke-width="1.289"/>
   <path d="m260.81 262.16l127.74-28.175-126.92 147.52-0.8188-119.35z" fill="#003757" fill-opacity=".89" stroke-width="1.568"/>
   <path d="m184.49 246.55l42.238 4.1806-42.16-207.51-0.078 203.33z" fill="#474747" stroke-width="1.791"/>
   <path d="m183.77 44.035l-34.88 210.41 34.481-6.7855 0.3983-203.62z" fill="#afafaf" stroke-width="1.9"/>
   <g fill="#fff">
    <path d="m168.02 253.91l-45.597 8.4811 0.4775 248.37 45.669 0.172" stroke-width="1.8"/>
    <path d="m388.7 379.35l1.1414 141.54-128.19-8.1893-0.791-130.49 127.84-2.8536z" stroke-width="1.662"/>
   </g>
   <path d="m359.72 439.87c-0.87415-0.59592-0.55392 78.715-0.55392 78.715l19.254 1.314-0.5707-80.621-18.129 0.5927z" fill="#003757" fill-opacity=".89" stroke-width="1.662"/>
   <g stroke-width="1.101">
    <path d="m388.2 520.8l-0.3131-141.89 60.942 1.6038v-10.932l27.798 0.7753 36.679-10.14 3.9492-1.086 36.886 13.364 30.471 0.5346-0.5346 10.692 66.823 1.6037 0.0917 134.27-262.79 1.1989z" fill="#f7f7f7"/>
    <path d="m368.38 439.72v80.722" fill="none"/>
   </g>
  </g>
  <path d="m166.46 318.38l-40.718 2.9093-1.443 4.8257 43.095-3.0792-0.9336-4.6559z" fill="#e3e3e3" stroke-width=".2"/>
  <path d="m161.52 413.17c0-1.1926-0.28323-137.52-0.28323-137.52l6.6156-1.0943-0.2121 145.21-6.1203-6.5933z" fill="#eee" stroke="#b0b0b0" stroke-width=".414"/>
  <g stroke="#000">
   <path d="m141.74 392.69l27.582 29.605-116.2-1.5183v-28.846l88.615 0.759z" fill="#003757" fill-opacity=".89" stroke-width=".972"/>
   <path d="m56.228 420.64l113.95 1.0542-1.1083 89.253-112.89 0.0603 0.05-90.367z" fill="#f5f5f5" stroke-width=".932"/>
   <g transform="matrix(2.32 0 0 2.32 -507.61 -413.06)">
    <rect x="266.64" y="365.01" width="17.761" height="15.275" fill="#e0e0e0" stroke-width=".525"/>
    <g stroke-width=".568">
     <path d="m273.93 366.04l0.0147 13.124 3.8553 0.0384 0.0456-13.145-3.9156-0.0175z" fill="url(#i)"/>
     <path d="m268.18 366l0.0147 13.124 3.8553 0.0384 0.0456-13.145-3.9155-0.0174z" fill="url(#j)"/>
     <path d="m279.17 366.1l0.0147 13.124 3.8553 0.0384 0.0456-13.145-3.9156-0.0175z" fill="url(#k)"/>
    </g>
    <path d="m266.46 381.93l18.183 0.1263" fill="none"/>
   </g>
  </g>
  <path d="m123.7 348.56c0-0.57761 0.061256-65.797 0.061256-65.797l6.2071-1.1293-0.0411 70.12-6.2273-3.1929z" fill="#eee" stroke="#b0b0b0" stroke-width=".291"/>
  <g stroke="#000">
   <path d="m167.66 422.03v3.964h-111.49v-3.964h111.49z" fill="#a4a4a4" stroke-width=".408"/>
   <g fill="#7083ea" stroke-width="1.937">
    <path d="m387.07 264.73l5.1381 0.3014"/>
    <path d="m387.07 270.01l5.1381 0.3015"/>
   </g>
  </g>
  <g fill="#7083ea" stroke="#111" stroke-width="1.937">
   <path d="m387.07 275.29l5.1381 0.3015"/>
   <path d="m387.07 280.56l5.1381 0.3014"/>
  </g>
 </g>
 <path d="m398.19 325.39a11.56 11.328 0 1 1 -23.12 0 11.56 11.328 0 1 1 23.12 0z" fill="#6a6a6a" stroke="#000" stroke-linecap="round" stroke-opacity=".845" stroke-width="1.2"/>
 <g fill-rule="evenodd">
  <g fill="none" stroke="#000" stroke-width="3.344">
   <path d="m184 43.865l-0.0451-25.112"/>
   <path d="m177.91 27.76h12.183"/>
  </g>
  <g fill="#b1b1b1" stroke="#848484" stroke-width="2.412">
   <path d="m196.74 283.64l14.647 1.1717"/>
   <path d="m196.74 290.78l14.647 1.1718"/>
   <path d="m196.74 297.93l14.647 1.1718"/>
   <path d="m196.74 312.23l14.647 1.1718"/>
   <path d="m196.74 305.08l14.647 1.1718"/>
  </g>
  <path d="m441.84 374.76l0.293-9.374 7.3945 4.4297 0.0858 10.96-7.7733-6.0156z" fill="#e1e1e1" stroke="#797979" stroke-width=".965"/>
  <g fill="#d5d5d5" stroke="#878787">
   <g stroke-width=".955">
    <path d="m511.27 353.67l36.617 13.182 6.1517 5.5659-37.203-12.889"/>
    <path d="m554.33 372.71l-5.8588-5.7123 26.804 0.4394 8.9346 5.2729h-29.88z"/>
   </g>
   <path d="m584.16 384.01l-0.1256-5.2077 55.166 0.8467 10.932 5.1895-65.972-0.8286z" stroke-width="1.048"/>
   <g stroke-width="1.194">
    <path d="m442.98 365.04l6.8356 4.7642 29.103 0.4143-7.0427-4.7642-28.896-0.4143z"/>
    <path d="m471.88 365.56l6.8356 4.7642 38.01-10.875-5.0749-5.282-39.771 11.392z"/>
   </g>
   <g stroke-width="1.433">
    <path d="m261.54 386.8l5.9735-6.4458 117.87-7.3843 2.2903 5.717-126.14 8.1131z"/>
    <path d="m388.09 378.92l-2.4857-5.4891 56.342 2.0713 7.0428 5.4892-60.899-2.0714z"/>
   </g>
  </g>
  <g stroke="#000">
   <rect transform="matrix(.96168 0 0 .96168 17.293 22.04)" x="421.88" y="429.03" width="26.335" height="45.203" fill="#e0e0e0" stroke-width="1.101"/>
   <path d="m426.32 438.72l-0.0945 35.995 7.7145 0.1086 0.2151-36.24-4.1034-2.0067-3.7317 2.1432z" fill="url(#o)" stroke-width="1.406"/>
   <path d="m420.74 481.69h29.88" fill="none" stroke-width="2.412"/>
   <path d="m490.44 439.39l-0.378 80.429 55.686 0.3779-0.1838-80.997-55.124 0.1901z" fill="#003757" fill-opacity=".888" stroke-width="1.513"/>
   <path d="m517.57 439.63l0.378 80.893" fill="none" stroke-width="1.101"/>
   <path d="m489.99 438.09l55.814 0.1391c-0.29724-1.2496 0.45837-11.157-4.7355-13.895-5.1901-2.736-17.992-8.7675-23.758-8.6762-5.7667 0.091339-19.138 4.764-23.409 8.9048-3.7197 3.606-3.4305 13.704-3.4317 13.178" fill="#575757" stroke-width="1.441"/>
  </g>
  <g fill="#404040" stroke="#e8e8e8">
   <path d="m492.44 437.7l4.2843-0.04v-3.9865s0.25247-2.7892-0.91302-4.7042c-1.0722-1.7616-1.5701-1.8453-2.8094 0.55814-0.8428 1.6345-0.56189 3.9069-0.56189 3.9069v4.2657z" stroke-width="1.233"/>
   <path d="m498.33 437.4l6.2918-0.0613v-6.1386s0.37073-4.2949-1.3408-7.2434c-1.5747-2.7127-2.3058-2.8415-4.1258 0.85934-1.2377 2.5168-0.82513 6.0158-0.82513 6.0158v6.5682z" stroke-width="1.853"/>
   <path d="m507.07 437.03l8.4506-0.0713v-7.1278s0.49792-4.987-1.801-8.4107c-2.1149-3.1498-3.0969-3.2994-5.5414 0.9978-1.6623 2.9224-1.1082 6.9853-1.1082 6.9853l-1e-4 7.6267z" stroke-width="2.315"/>
   <path d="m541.38 437.48l-4.2844-0.0399v-3.9865s-0.25244-2.7892 0.91309-4.7041c1.0722-1.7617 1.5701-1.8453 2.8094 0.55804 0.84271 1.6345 0.56183 3.9069 0.56183 3.9069v4.2657z" stroke-width="1.233"/>
   <path d="m535.49 437.18l-6.2918-0.0614v-6.1385s-0.37073-4.2949 1.3409-7.2434c1.5746-2.7127 2.3058-2.8415 4.1257 0.85931 1.2377 2.5168 0.8252 6.0159 0.8252 6.0159v6.5682z" stroke-width="1.853"/>
   <path d="m526.75 436.81l-8.4506-0.0713v-7.1277s-0.49792-4.9871 1.801-8.4108c2.1149-3.1498 3.0969-3.2993 5.5413 0.99786 1.6624 2.9224 1.1083 6.9853 1.1083 6.9853l1e-4 7.6266z" stroke-width="2.315"/>
  </g>
  <g fill="none">
   <g fill-opacity=".75" stroke="#000" stroke-opacity=".39">
    <g stroke-width=".724">
     <path d="m512.32 439.4l1e-4 79.541"/>
     <path d="m506.72 440.03v79.956"/>
     <path d="m501.13 439.4v79.748"/>
    </g>
    <path d="m495.54 440.23l0.0045 78.303" stroke-width=".719"/>
    <g stroke-width=".724">
     <path d="m539.64 438.47v79.541"/>
     <path d="m534.05 439.09v79.956"/>
     <path d="m528.45 438.47v79.748"/>
    </g>
    <path d="m522.86 439.3l0.0045 78.303" stroke-width=".719"/>
   </g>
   <g stroke="#838383" stroke-width="1.44">
    <path d="m479.05 369.9v13.541"/>
    <path d="m553.22 371.38v13.541"/>
   </g>
  </g>
  <rect transform="matrix(.96168 0 0 .96168 17.293 22.04)" x="369.67" y="225.72" width="33.346" height="12.218" fill="#f6f6f6" stroke-width="1.05"/>
  <g stroke="#000">
   <path d="m371.77 250.16l0.7458-0.2764 0.2315-10.52h9.2386l7.3873-8.7065 6.4228 8.4743h8.4191l0.3504 11.626 0.0322-0.2491" fill="none" stroke-width="1.922"/>
   <g transform="matrix(3.9242 0 0 3.9242 -1119.2 -1245.4)" fill="#003757" fill-opacity=".89">
    <path d="m335.17 429.09l0.0188 18.672 10.38 0.0907 0.0104-18.942-5.1375-2.6558-5.2714 2.8353z" stroke-width=".308"/>
    <path d="m340.24 426.33l0.0535 21.613" stroke-width=".206"/>
    <g stroke-opacity=".39">
     <path d="m338.53 427.28v20.358" stroke-width=".2"/>
     <g stroke-width=".191">
      <path d="m336.72 428.24v19.523"/>
      <path d="m343.84 428.23v19.393"/>
      <path d="m342.03 427.28v20.46"/>
     </g>
    </g>
   </g>
   <g fill="none" stroke-opacity=".39" stroke-width=".695">
    <path d="m364.22 441.03v76.623"/>
    <path d="m373 440.44v76.623"/>
   </g>
  </g>
  <path d="m384.65 268.6v-3.9235s0.46094-2.4704 2.1876-4.6298c2.8458-3.5589 3.69-3.5851 6.3054 0.11536 1.4926 2.1118 1.7718 4.4719 1.7718 4.4719v4.0052" fill="none" stroke="#dbdbdb" stroke-width="3.195"/>
  <path d="m346.13 283.81l84.346 0.6396 2.9197 5.2779-89.268-0.6769 2.0031-5.2405z" fill="#e3e3e3" stroke-width=".2"/>
  <g fill="#e5e5e5">
   <path d="m267.89 375.02l7.3579-0.3504 114.57-134.89 94.251 121.58 5.2556-1.7519-99.857-126.84-121.58 142.25z"/>
   <path d="m374.06 250.63v-10.511l8.409 0.7008-8.409 9.8105z"/>
   <path d="m403.14 250.28v-10.511l-8.409 0.7008 8.409 9.8105z"/>
  </g>
 </g>
 <g transform="matrix(4.7591 0 0 3.9242 -1422.8 -1242.1)">
  <path d="m365.24 437.57l1.8216 0.0732-2.2019-0.0183c0.026337-3.4656 0.006561-9.8691 0.026337-10.397-0.026306-2.3308 0.16809-2.6954 0.37643-3.0175 0.17203-0.4892 0.35089-0.71881 0.67426-0.73492" fill="none" stroke="#000" stroke-width=".325"/>
  <g fill-rule="evenodd">
   <g stroke="#000">
    <path d="m365.39 427.7l0.0047 2.7883h1.1951l0.0047-2.7677-1.2046-0.0206z" fill="#4b4b4b" stroke-width=".324"/>
    <path d="m365.37 427.22l1.2213-0.0169v-1.2723s0.07074-0.89017-0.25586-1.5013c-0.30042-0.56222-0.43991-0.5889-0.78717 0.17813-0.23618 0.52164-0.1748 1.2511-0.1748 1.2511l-0.0034 1.3613z" fill="#404040" stroke-width=".355"/>
   </g>
   <g fill="none">
    <path d="m367 437.82c-0.026428-2.477 0.019379-11.32-4.58e-4 -11.697-0.027527-0.9122-0.20587-1.8124-0.40533-2.1782-0.1727-0.34964-0.32486-0.49216-0.64948-0.50369" stroke="#b6b6b6" stroke-width=".275"/>
    <path d="m364.64 438.18l2.5069 0.0631" stroke="#000" stroke-width=".473"/>
   </g>
   <g fill="#4b4b4b" stroke="#000" stroke-width=".324">
    <path d="m365.38 430.98l0.0047 2.7883h1.1952l0.0047-2.7677-1.2046-0.0206z"/>
    <path d="m365.38 434.33l0.0047 2.7883h1.1952l0.0047-2.7677-1.2046-0.0206z"/>
   </g>
  </g>
 </g>
 <g transform="matrix(4.7591 0 0 3.9242 -1450.7 -1242.4)">
  <path d="m365.24 437.57l1.8216 0.0732-2.2019-0.0183c0.026337-3.4656 0.006561-9.8691 0.026337-10.397-0.026306-2.3308 0.16809-2.6954 0.37643-3.0175 0.17203-0.4892 0.35089-0.71881 0.67426-0.73492" fill="none" stroke="#000" stroke-width=".325"/>
  <g fill-rule="evenodd">
   <g stroke="#000">
    <path d="m365.39 427.7l0.0047 2.7883h1.1951l0.0047-2.7677-1.2046-0.0206z" fill="#4b4b4b" stroke-width=".324"/>
    <path d="m365.37 427.22l1.2213-0.0169v-1.2723s0.07074-0.89017-0.25586-1.5013c-0.30042-0.56222-0.43991-0.5889-0.78717 0.17813-0.23618 0.52164-0.1748 1.2511-0.1748 1.2511l-0.0034 1.3613z" fill="#404040" stroke-width=".355"/>
   </g>
   <g fill="none">
    <path d="m367 437.82c-0.026428-2.477 0.019379-11.32-4.58e-4 -11.697-0.027527-0.9122-0.20587-1.8124-0.40533-2.1782-0.1727-0.34964-0.32486-0.49216-0.64948-0.50369" stroke="#b6b6b6" stroke-width=".275"/>
    <path d="m364.64 438.18l2.4939 0.0631" stroke="#000" stroke-width=".473"/>
   </g>
   <g fill="#4b4b4b" stroke="#000" stroke-width=".324">
    <path d="m365.38 430.98l0.0047 2.7883h1.1952l0.0047-2.7677-1.2046-0.0206z"/>
    <path d="m365.38 434.33l0.0047 2.7883h1.1952l0.0047-2.7677-1.2046-0.0206z"/>
   </g>
  </g>
 </g>
 <g fill-rule="evenodd">
  <g stroke="#000">
   <g stroke-width=".816">
    <path d="m187.31 438.43l28.38-16.117 29.081 15.066 1.7519-2.803-31.183-15.767-30.132 16.818 2.1023 2.8029z" fill="#e3e3e3"/>
    <path d="m168.16 252.38l0.1239-6.3177 19.696 1.3626-0.1239-7.4326 26.509-5.946 26.757 10.282 0.3716 7.061 19.201 1.6104 0.1239 5.3267-92.659-5.9461z" fill="#707070"/>
   </g>
   <path d="m169.02 252.34l-0.275-6.3412-10.091 2.3213-0.1848-7.4734-13.842-4.6922-13.426 11.624 0.0449 7.1119-9.8275 2.5463 0.1144 5.3576 47.487-10.454z" fill="#a5a5a5" stroke-width=".588"/>
  </g>
  <path d="m173.6 316.74l84.215 4.7279 2.6605 5.4133-89.13-5.004 2.2548-5.1373z" fill="#e3e3e3" stroke-width=".2"/>
  <g fill="#eee" stroke="#b0b0b0">
   <path d="m184.02 510.6c0-1.9324-0.49583-235.26-0.49583-235.26l-14.874-0.9702 0.8458 236.68 14.524-0.4432z" stroke-width=".806"/>
   <path d="m261.56 510.98c0-1.9052-0.49603-231.95-0.49603-231.95l-14.88-0.9564 0.1452 232.66 15.23 0.2442z" stroke-width=".801"/>
  </g>
  <path d="m197.18 318.73l0.3504-26.472s0.4644-5.9227 1.634-8.4696c5.4988-11.974 6.5829-12.468 10.852 0.40744 1.1952 3.6052 1.4074 9.3135 1.4074 9.3135l-0.1752 25.534" fill="none" stroke="#dbdbdb" stroke-width="5.031"/>
  <g transform="matrix(3.9242 0 0 3.9242 -1117.8 -1239.8)">
   <g fill="#b1b1b1" stroke="#848484" stroke-width=".591">
    <path d="m340.59 388.63l3.7325 0.2986"/>
    <path d="m340.59 390.45l3.7325 0.2986"/>
    <path d="m340.59 392.27l3.7325 0.2986"/>
    <path d="m340.59 395.92l3.7325 0.2986"/>
    <path d="m340.59 394.09l3.7325 0.2986"/>
   </g>
   <path d="m340.51 397.44l0.0893-6.7458s0.11835-1.5093 0.41641-2.1583c1.4012-3.0513 1.6775-3.1773 2.7653 0.10382 0.30456 0.9187 0.35867 2.3734 0.35867 2.3734l-0.0446 6.5069" fill="none" stroke="#dbdbdb" stroke-width="1.233"/>
  </g>
  <g transform="matrix(-2.3074 0 0 3.9242 955.3 -1238.6)">
   <g fill="#b1b1b1" stroke="#848484" stroke-width=".591">
    <path d="m346.38 388.63l3.7325 0.2986"/>
    <path d="m346.38 390.45l3.7325 0.2986"/>
    <path d="m346.38 392.27l3.7325 0.2986"/>
    <path d="m346.38 395.92l3.7325 0.2986"/>
    <path d="m346.38 394.09l3.7325 0.2986"/>
   </g>
   <path d="m346.3 397.44l0.0893-6.7458s0.11835-1.5093 0.41641-2.1583c1.4012-3.0513 1.6775-3.1773 2.7653 0.10382 0.30456 0.9187 0.35867 2.3734 0.35867 2.3734l-0.0446 6.5069" fill="none" stroke="#dbdbdb" stroke-width="1.233"/>
  </g>
  <g transform="matrix(-2.3074 0 0 3.9242 940.37 -1236.6)">
   <g fill="#b1b1b1" stroke="#848484" stroke-width=".591">
    <path d="m346.38 388.63l3.7325 0.2986"/>
    <path d="m346.38 390.45l3.7325 0.2986"/>
    <path d="m346.38 392.27l3.7325 0.2986"/>
    <path d="m346.38 395.92l3.7325 0.2986"/>
    <path d="m346.38 394.09l3.7325 0.2986"/>
   </g>
   <path d="m345.76 397.44l0.0893-6.7458s0.11835-1.5093 0.41638-2.1583c1.4013-3.0513 1.6775-3.1773 2.7653 0.10382 0.3046 0.9187 0.35867 2.3734 0.35867 2.3734l-0.0446 6.5069" fill="none" stroke="#dbdbdb" stroke-width="1.233"/>
  </g>
  <g fill="#eee" stroke="#b0b0b0" stroke-width=".567">
   <path d="m411.44 520.01c0.24808 0.45074-0.13116-114.84-0.13116-114.84l-15.098-0.4721 0.2549 115.43 14.974-0.1133zm-15.366-90.755l15.379 0.4638-0.2481-24.578-15.131-0.4638v24.578z"/>
   <path d="m475.58 520.27c0.24805 0.45074-0.1312-114.84-0.1312-114.84l-15.098-0.4722 0.2548 115.43 14.974-0.1133zm-15.366-90.755l15.379 0.4637-0.248-24.578-15.131-0.4637 1e-4 24.578z"/>
  </g>
  <g stroke="#000">
   <rect transform="matrix(.96168 0 0 .96168 17.293 22.04)" x="593.49" y="427.11" width="26.335" height="45.203" fill="#e0e0e0" stroke-width="1.101"/>
   <path d="m585.78 479.83h29.88" fill="none" stroke-width="2.412"/>
  </g>
  <g fill="#eee" stroke="#b0b0b0" stroke-width=".567">
   <path d="m576.3 518.16c0.24805 0.45081-0.13116-114.84-0.13116-114.84l-15.098-0.4721 0.2548 115.43 14.974-0.1133zm-15.366-90.755l15.379 0.4637-0.248-24.578-15.131-0.4637v24.578z"/>
   <path d="m640.44 518.42c0.24805 0.45081-0.13123-114.84-0.13123-114.84l-15.098-0.4722 0.2548 115.43 14.974-0.1133zm-15.366-90.755l15.379 0.4637-0.248-24.578-15.131-0.4637 1e-4 24.578z"/>
  </g>
  <g fill="none">
   <path d="m168.39 273.41l0.1752 238.08" stroke="#000" stroke-width="1.632"/>
   <g stroke="#525252" stroke-width=".816">
    <path d="m412.86 435.81h7.0951v-4.9052h30.833l0.0876 4.8177h6.3943v-2.5402h-3.7665v-4.73h-36.001l0.0876 4.9053h-4.6425l-0.0876 2.4526z"/>
    <path d="m578.11 434.53h7.0951v-4.9052h30.833l0.0876 4.8177 6.3943-1e-4v-2.5402h-3.7665v-4.73h-36.001l0.0876 4.9052h-4.6425l-0.0876 2.4526z"/>
   </g>
  </g>
  <g stroke="#000">
   <g stroke-width="1.406">
    <path d="m436.97 438.73l-0.0945 35.995 7.7146 0.1086 0.2151-36.24-4.1034-2.0068-3.7317 2.1431z" fill="url(#n)"/>
    <path d="m591.53 436.74l-0.0945 35.995 7.7146 0.1086 0.215-36.24-4.1034-2.0067-3.7317 2.1431z" fill="url(#m)"/>
    <path d="m602.18 436.75l-0.0944 35.995 7.7145 0.1086 0.215-36.24-4.1034-2.0068-3.7318 2.1432z" fill="url(#l)"/>
   </g>
   <g fill="#474747" stroke-opacity=".54">
    <g stroke-width="1.632">
     <path d="m490.03 455.6c14.716 0.35037 14.365 0.35037 14.365 0.35037"/>
     <path d="m489.92 503.64c14.716 0.3504 14.365 0.3504 14.365 0.3504"/>
     <path d="m531.95 455.23c14.716 0.35031 14.365 0.35031 14.365 0.35031"/>
     <path d="m531.85 503.27c14.716 0.35034 14.365 0.35034 14.365 0.35034"/>
    </g>
    <g stroke-width="1.387">
     <path d="m196.21 450.4c10.572 0.35208 10.32 0.35208 10.32 0.35208"/>
     <path d="m196.13 498.67c10.572 0.35208 10.32 0.35208 10.32 0.35208"/>
     <path d="m226.32 450.03c10.572 0.35196 10.32 0.35196 10.32 0.35196"/>
     <path d="m226.25 498.3c10.572 0.35208 10.32 0.35208 10.32 0.35208"/>
    </g>
   </g>
  </g>
 </g>
 <path d="m392.76 333.55c0.4585 0.20181 0.71368 0.54529 1.0202 0.91476 0.034485 0.090485 0.17691 0.33166 0.22638 0.42447l-2.3788 1.3653c-0.070526-0.13626-0.1463-0.26984-0.21155-0.40894-0.27518-0.30695-0.45831-0.60461-0.91043-0.65781l2.2541-1.6378z" fill="#3c3c3c"/>
 <g fill-rule="evenodd">
  <g transform="matrix(3.9242 0 0 3.9242 -1118.2 -1235.6)">
   <path d="m408.67 425.6a0.59978 0.91545 0 1 1 -1.1995 0 0.59978 0.91545 0 1 1 1.1995 0z" fill="#3c3c3c" stroke="#565656" stroke-linecap="round" stroke-opacity=".845" stroke-width=".4"/>
   <path d="m408.1 426.2v1.1996" fill="none" stroke="#626262" stroke-width=".5"/>
  </g>
  <g transform="matrix(3.9242 0 0 3.9242 -1047.7 -1235.6)">
   <path d="m408.67 425.6a0.59978 0.91545 0 1 1 -1.1995 0 0.59978 0.91545 0 1 1 1.1995 0z" fill="#3c3c3c" stroke="#565656" stroke-linecap="round" stroke-opacity=".845" stroke-width=".4"/>
   <path d="m408.1 426.2v1.1996" fill="none" stroke="#626262" stroke-width=".5"/>
  </g>
  <g fill="none">
   <g transform="matrix(5.0453 0 0 3.9242 -1539.4 -1323.6)">
    <path d="m325.55 467.4c0.099792 0.099182 1.0881-1.8511 0.67386 0.89288-0.039795 0.26373-0.74817-1.25 0.1348-1.25 1.3489 0-1.2532 0.69629 0.33691-0.35718 0.61279-0.40594 0.47171 3.3272 0.47171 0.17859 0-0.038635 1.5756-0.78253 0.80862 1.25-0.13886 0.36798-0.99399-2.5894 0.26953-1.25 0.2706 0.2868-1.1522 2.1604-0.33691 0 0.75876-2.0107 0.60648 5.5878 0.60648-0.17859 0-2.2634 2.0749 3.5435 1.0108 1.4286-0.13214-0.26263 0.67389-2.1533 0.67389 0 0 0.18823-0.20218-0.009644-0.20218 0.17859 0 1.9033 0.91522-3.4219 0.33694-0.35718-0.65204 3.4558 2.1786-1.9044 0.74124 0-0.34512 0.45734 0.51898 0.20526 0.67386 0 0.58984-0.78149-0.36896 3.4601-0.067383-0.53571 0.006866-0.090881 0.41614 3.4556-0.1348 0.53571-0.14206-0.75287 0.63525-0.56128 0.94342-0.35712 0.097443 0.064575-0.17969-0.2381-0.26953-0.35712" fill-opacity=".75" stroke="#003500" stroke-width=".614"/>
    <path d="m322.44 468.29c0.26444-0.099121 2.8833 1.8512 1.7857-0.89282-0.1055-0.26373-1.9827 1.25 0.35715 1.25 3.5746 0-3.3209-0.69629 0.89285 0.35712 1.6239 0.40601 1.25-3.3271 1.25-0.17859 0 0.038696 4.1754 0.78259 2.1428-1.25-0.36795-0.36792-2.6341 2.5894 0.71429 1.25 0.71704-0.2868-3.0532-2.1603-0.89285 0 2.0107 2.0107 1.6072-5.5878 1.6072 0.17859 0 2.2634 5.4984-3.5434 2.6786-1.4286-0.35022 0.2627 1.7857 2.1534 1.7857 0 0-0.18823-0.53571 0.009705-0.53571-0.17853 0-1.9033 2.4253 3.4219 0.89285 0.35712-1.7278-3.4557 5.7731 1.9044 1.9643 0-0.91461-0.45728 1.3753-0.2052 1.7857 0 1.563 0.78156-0.97772-3.4601-0.17856 0.53571 0.018158 0.090942 1.1028-3.4556-0.35715-0.53571-0.37646 0.75293 1.6833 0.56134 2.5 0.35718 0.25824-0.064575-0.4762 0.2381-0.71429 0.35712" stroke="#006200"/>
    <g fill-opacity=".75">
     <path d="m338.95 467.11c-0.1275-0.059448-0.39566 2.1105-0.93674-0.61139-0.052002-0.2616 1.1278 0.92212 0.29718 1.2216-1.269 0.45752 0.94272-1.0801-0.1958 0.45026-0.43878 0.58978-1.5723-2.9699-0.50433-0.007996 0.013123 0.036377-1.2168 1.2706-1.1847-0.90161 0.005829-0.39325 1.8133 2.0987 0.17041 1.2673-0.35181-0.17804 0.3511-2.4231 0.31696-0.11432-0.031799 2.1489-2.4658-5.0508-0.50995 0.37372 0.7677 2.1292-3.1538-2.6296-1.4354-1.001 0.21341 0.20227 0.096466 2.2543-0.63391 0.22858-0.063843-0.17712 0.19345-0.059509 0.12961-0.23657-0.64557-1.7905 0.29971 3.5295-0.19583 0.45026-0.55875-3.472-1.4035 2.5305-0.6973 0.2514 0.16956-0.54724-0.55783-0.017029-0.63391 0.22858-0.2898 0.93524-0.82651-3.3801 0.24509 0.48108 0.024384 0.087891-1.5635-3.1096-0.054901-0.54968 0.38901 0.6601-0.4072 0.74353-0.76636 0.65601-0.11359-0.02771 0.24982 0.16302 0.3747 0.24451" stroke="#003500" stroke-width=".614"/>
     <g stroke="#6b1ae3">
      <path d="m330.04 466.54c-0.16836 0.21045-0.3367 0.4209-0.50507 0.63135-0.8689 1.0861 3.4722-0.13678 0.50507-0.63135-0.50678-0.084473 0.74893 0.88391 1.2627 0.88391 0.35855 0 0.20853-1.806-0.88388 0.37878-0.34091 0.68182 2.2729 0.50977 2.2729-0.2525 0-1.4398-1.4323-0.43658-0.63138 0.63129 0.098969 0.13196 2.1733 0.16223-0.12625-0.75757-0.20184-0.08075 0.27097-1.9282 0.75763 0.50507 0.12134 0.60681-2.2661-0.95038-0.63138-1.7678 0.55966-0.27985-1.3854 0.77539-1.2627 1.389" stroke-width=".5"/>
      <g stroke-width=".316">
       <path d="m339.84 467.98c-0.069733-0.203-0.1395-0.40601-0.20923-0.60901-0.35996-1.0478 1.4384 0.13196 0.20923 0.60901-0.20996 0.081482 0.31024-0.85266 0.52307-0.85266 0.14853 0 0.086395 1.7422-0.36615-0.36542-0.14124-0.65772 0.94156-0.49176 0.94156 0.24359 0 1.389-0.59335 0.4212-0.26154-0.60901 0.040985-0.12732 0.90033-0.15649-0.052307 0.73084-0.083618 0.077881 0.11224 1.8601 0.31384-0.48724 0.050262-0.58539-0.93878 0.91681-0.26154 1.7054 0.23184 0.2699-0.57394-0.74805-0.5231-1.34"/>
       <path d="m335.27 469.39c-0.069733-0.203-0.13946-0.40601-0.20923-0.60901-0.35996-1.0478 1.4384 0.13196 0.20923 0.60901-0.20993 0.081482 0.31027-0.85266 0.5231-0.85266 0.14853 0 0.086395 1.7422-0.36615-0.36542-0.14124-0.65772 0.94153-0.49176 0.94153 0.24359 0 1.389-0.59332 0.4212-0.26154-0.60901 0.040985-0.12732 0.90033-0.15649-0.052307 0.73084-0.083588 0.077881 0.11224 1.8601 0.31384-0.48724 0.050293-0.58539-0.93875 0.91681-0.26154 1.7054 0.23184 0.2699-0.57391-0.74805-0.52307-1.34"/>
       <path d="m326.8 468.21c-0.19888 0.08075-0.39777 0.1615-0.59668 0.24225-1.0265 0.41681 0.05304-1.4434 0.59668-0.24225 0.092865 0.2052-0.86838-0.26306-0.88004-0.47559-0.008118-0.14832 1.7349-0.18164-0.34482 0.38562-0.64902 0.177-0.54257-0.91321 0.19171-0.95349 1.3868-0.07605 0.453 0.5694-0.59384 0.2945-0.12933-0.033936-0.20557-0.89044 0.73264 0.012207 0.082336 0.079224 1.8512-0.21393-0.50369-0.28668-0.58725-0.018188 0.96686 0.88715 1.7171 0.16772 0.25687-0.24622-0.71545 0.61408-1.3093 0.5957"/>
      </g>
     </g>
     <g stroke="#fff" stroke-width=".241">
      <path d="m328.04 467.04c-0.074036 0.11151-0.1481 0.22296-0.22217 0.33447-0.38217 0.57532 1.5273-0.07251 0.22217-0.33447-0.2229-0.044739 0.32944 0.4682 0.55542 0.4682 0.15772 0 0.091736-0.95666-0.38879 0.20068-0.14993 0.36114 0.99976 0.27002 0.99976-0.13379 0-0.7627-0.63004-0.23126-0.27771 0.33447 0.043518 0.069885 0.95596 0.085938-0.055542-0.40137-0.088776-0.042725 0.11917-1.0214 0.33325 0.26758 0.053375 0.32141-0.9968-0.50342-0.27771-0.93646 0.24616-0.14819-0.60938 0.41077-0.55542 0.73578"/>
      <path d="m331.54 467.84c-0.074036 0.11145-0.1481 0.22296-0.22217 0.33441-0.3822 0.57538 1.5273-0.072449 0.22217-0.33441-0.2229-0.044739 0.32944 0.4682 0.55542 0.4682 0.15772 0 0.091705-0.95666-0.38879 0.20068-0.14996 0.36114 0.99972 0.27002 0.99972-0.13379 0-0.7627-0.63-0.23126-0.27771 0.33447 0.043549 0.069885 0.95599 0.085938-0.055542-0.40137-0.088776-0.042725 0.1192-1.0214 0.33325 0.26758 0.053406 0.32141-0.99676-0.50348-0.27771-0.93646 0.24618-0.14819-0.60938 0.41077-0.55539 0.73578"/>
      <path d="m335.95 467.43c0.092041-0.097168 0.18411-0.19428 0.27618-0.29144 0.4751-0.50134-1.5172-0.19025-0.27618 0.29144 0.21194 0.082275-0.24435-0.51776-0.46698-0.55646-0.1554-0.027039-0.2543 0.92682 0.41742-0.1311 0.2096-0.33014-0.93869-0.43732-1.0079-0.03949-0.13068 0.75146 0.58106 0.33582 0.3309-0.28186-0.030914-0.076355-0.92712-0.24847-0.014038 0.40491 0.080139 0.057312-0.79752 0.98584-0.78757-0.32074 0.002472-0.32581 1.4009 0.66681 0.61822 0.97022-0.26791 0.10382 0.67075-0.30029 0.67328-0.62976"/>
     </g>
    </g>
   </g>
   <g transform="matrix(-3.9242 0 0 3.9242 1927.2 -1313.4)">
    <path d="m329.36 467.4c0.099792 0.099182 1.0881-1.8511 0.67386 0.89288-0.039795 0.26373-0.74817-1.25 0.1348-1.25 1.3489 0-1.2532 0.69629 0.33691-0.35718 0.61279-0.40594 0.47171 3.3272 0.47171 0.17859 0-0.038635 1.5756-0.78253 0.80862 1.25-0.13886 0.36798-0.99399-2.5894 0.26953-1.25 0.2706 0.2868-1.1522 2.1604-0.33691 0 0.75876-2.0107 0.60648 5.5878 0.60648-0.17859 0-2.2634 2.0749 3.5435 1.0108 1.4286-0.13214-0.26263 0.67389-2.1533 0.67389 0 0 0.18823-0.20218-0.009644-0.20218 0.17859 0 1.9033 0.91522-3.4219 0.33694-0.35718-0.65204 3.4558 2.1786-1.9044 0.74124 0-0.34512 0.45734 0.51898 0.20526 0.67386 0 0.58984-0.78149-0.36896 3.4601-0.067383-0.53571 0.006866-0.090881 0.41614 3.4556-0.1348 0.53571-0.14206-0.75287 0.63525-0.56128 0.94342-0.35712 0.097443 0.064575-0.17969-0.2381-0.26953-0.35712" fill-opacity=".75" stroke="#003500" stroke-width=".614"/>
    <path d="m326.25 468.29c0.26444-0.099121 2.8833 1.8512 1.7857-0.89282-0.1055-0.26373-1.9827 1.25 0.35715 1.25 3.5746 0-3.3209-0.69629 0.89285 0.35712 1.6239 0.40601 1.25-3.3271 1.25-0.17859 0 0.038696 4.1754 0.78259 2.1428-1.25-0.36795-0.36792-2.6341 2.5894 0.71429 1.25 0.71704-0.2868-3.0532-2.1603-0.89285 0 2.0107 2.0107 1.6072-5.5878 1.6072 0.17859 0 2.2634 5.4984-3.5434 2.6786-1.4286-0.35022 0.2627 1.7857 2.1534 1.7857 0 0-0.18823-0.53571 0.009705-0.53571-0.17853 0-1.9033 2.4253 3.4219 0.89285 0.35712-1.7278-3.4557 5.7731 1.9044 1.9643 0-0.91461-0.45728 1.3753-0.2052 1.7857 0 1.563 0.78156-0.97772-3.4601-0.17856 0.53571 0.018158 0.090942 1.1028-3.4556-0.35715-0.53571-0.37646 0.75293 1.6833 0.56134 2.5 0.35718 0.25824-0.064575-0.4762 0.2381-0.71429 0.35712" stroke="#006200"/>
    <g fill-opacity=".75">
     <path d="m342.77 467.11c-0.1275-0.059448-0.39566 2.1105-0.93674-0.61139-0.052002-0.2616 1.1278 0.92212 0.29718 1.2216-1.269 0.45752 0.94272-1.0801-0.1958 0.45026-0.43878 0.58978-1.5723-2.9699-0.50433-0.007996 0.013123 0.036377-1.2168 1.2706-1.1847-0.90161 0.005829-0.39325 1.8133 2.0987 0.17041 1.2673-0.35181-0.17804 0.3511-2.4231 0.31696-0.11432-0.031799 2.1489-2.4658-5.0508-0.50995 0.37372 0.7677 2.1292-3.1538-2.6296-1.4354-1.001 0.21341 0.20227 0.096466 2.2543-0.63391 0.22858-0.063843-0.17712 0.19345-0.059509 0.12961-0.23657-0.64557-1.7905 0.29971 3.5295-0.19583 0.45026-0.55875-3.472-1.4035 2.5305-0.6973 0.2514 0.16956-0.54724-0.55783-0.017029-0.63391 0.22858-0.2898 0.93524-0.82651-3.3801 0.24509 0.48108 0.024384 0.087891-1.5635-3.1096-0.054901-0.54968 0.38901 0.6601-0.4072 0.74353-0.76636 0.65601-0.11359-0.02771 0.24982 0.16302 0.3747 0.24451" stroke="#003500" stroke-width=".614"/>
     <g stroke="#6b1ae3">
      <path d="m333.85 466.54c-0.16836 0.21045-0.3367 0.4209-0.50507 0.63135-0.8689 1.0861 3.4722-0.13678 0.50507-0.63135-0.50678-0.084473 0.74893 0.88391 1.2627 0.88391 0.35855 0 0.20853-1.806-0.88388 0.37878-0.34091 0.68182 2.2729 0.50977 2.2729-0.2525 0-1.4398-1.4323-0.43658-0.63138 0.63129 0.098969 0.13196 2.1733 0.16223-0.12625-0.75757-0.20184-0.08075 0.27097-1.9282 0.75763 0.50507 0.12134 0.60681-2.2661-0.95038-0.63138-1.7678 0.55966-0.27985-1.3854 0.77539-1.2627 1.389" stroke-width=".5"/>
      <g stroke-width=".316">
       <path d="m343.66 467.98c-0.069733-0.203-0.1395-0.40601-0.20923-0.60901-0.35996-1.0478 1.4384 0.13196 0.20923 0.60901-0.20996 0.081482 0.31024-0.85266 0.52307-0.85266 0.14853 0 0.086395 1.7422-0.36615-0.36542-0.14124-0.65772 0.94156-0.49176 0.94156 0.24359 0 1.389-0.59335 0.4212-0.26154-0.60901 0.040985-0.12732 0.90033-0.15649-0.052307 0.73084-0.083618 0.077881 0.11224 1.8601 0.31384-0.48724 0.050262-0.58539-0.93878 0.91681-0.26154 1.7054 0.23184 0.2699-0.57394-0.74805-0.5231-1.34"/>
       <path d="m339.08 469.39c-0.069733-0.203-0.13946-0.40601-0.20923-0.60901-0.35996-1.0478 1.4384 0.13196 0.20923 0.60901-0.20993 0.081482 0.31027-0.85266 0.5231-0.85266 0.14853 0 0.086395 1.7422-0.36615-0.36542-0.14124-0.65772 0.94153-0.49176 0.94153 0.24359 0 1.389-0.59332 0.4212-0.26154-0.60901 0.040985-0.12732 0.90033-0.15649-0.052307 0.73084-0.083588 0.077881 0.11224 1.8601 0.31384-0.48724 0.050293-0.58539-0.93875 0.91681-0.26154 1.7054 0.23184 0.2699-0.57391-0.74805-0.52307-1.34"/>
       <path d="m330.61 468.21c-0.19888 0.08075-0.39777 0.1615-0.59668 0.24225-1.0265 0.41681 0.05304-1.4434 0.59668-0.24225 0.092865 0.2052-0.86838-0.26306-0.88004-0.47559-0.008118-0.14832 1.7349-0.18164-0.34482 0.38562-0.64902 0.177-0.54257-0.91321 0.19171-0.95349 1.3868-0.07605 0.453 0.5694-0.59384 0.2945-0.12933-0.033936-0.20557-0.89044 0.73264 0.012207 0.082336 0.079224 1.8512-0.21393-0.50369-0.28668-0.58725-0.018188 0.96686 0.88715 1.7171 0.16772 0.25687-0.24622-0.71545 0.61408-1.3093 0.5957"/>
      </g>
     </g>
     <g stroke="#fff" stroke-width=".241">
      <path d="m331.85 467.04c-0.074036 0.11151-0.1481 0.22296-0.22217 0.33447-0.38217 0.57532 1.5273-0.07251 0.22217-0.33447-0.2229-0.044739 0.32944 0.4682 0.55542 0.4682 0.15772 0 0.091736-0.95666-0.38879 0.20068-0.14993 0.36114 0.99976 0.27002 0.99976-0.13379 0-0.7627-0.63004-0.23126-0.27771 0.33447 0.043518 0.069885 0.95596 0.085938-0.055542-0.40137-0.088776-0.042725 0.11917-1.0214 0.33325 0.26758 0.053375 0.32141-0.9968-0.50342-0.27771-0.93646 0.24616-0.14819-0.60938 0.41077-0.55542 0.73578"/>
      <path d="m335.36 467.84c-0.074036 0.11145-0.1481 0.22296-0.22217 0.33441-0.3822 0.57538 1.5273-0.072449 0.22217-0.33441-0.2229-0.044739 0.32944 0.4682 0.55542 0.4682 0.15772 0 0.091705-0.95666-0.38879 0.20068-0.14996 0.36114 0.99972 0.27002 0.99972-0.13379 0-0.7627-0.63-0.23126-0.27771 0.33447 0.043549 0.069885 0.95599 0.085938-0.055542-0.40137-0.088776-0.042725 0.1192-1.0214 0.33325 0.26758 0.053406 0.32141-0.99676-0.50348-0.27771-0.93646 0.24618-0.14819-0.60938 0.41077-0.55539 0.73578"/>
      <path d="m339.76 467.43c0.092041-0.097168 0.18411-0.19428 0.27618-0.29144 0.4751-0.50134-1.5172-0.19025-0.27618 0.29144 0.21194 0.082275-0.24435-0.51776-0.46698-0.55646-0.1554-0.027039-0.2543 0.92682 0.41742-0.1311 0.2096-0.33014-0.93869-0.43732-1.0079-0.03949-0.13068 0.75146 0.58106 0.33582 0.3309-0.28186-0.030914-0.076355-0.92712-0.24847-0.014038 0.40491 0.080139 0.057312-0.79752 0.98584-0.78757-0.32074 0.002472-0.32581 1.4009 0.66681 0.61822 0.97022-0.26791 0.10382 0.67075-0.30029 0.67328-0.62976"/>
     </g>
    </g>
   </g>
  </g>
 </g>
</svg>
